<?xml version="1.0" encoding="utf-8"?>
<!-- Generator: Adobe Illustrator 24.0.1, SVG Export Plug-In . SVG Version: 6.00 Build 0)  -->
<svg version="1.1" id="Layer_1" xmlns="http://www.w3.org/2000/svg" xmlns:xlink="http://www.w3.org/1999/xlink" x="0px" y="0px"
	 viewBox="0 0 1366 768" style="enable-background:new 0 0 1366 768;" xml:space="preserve">
<style type="text/css">
	.st0{fill:#020202;}
	.st1{fill:url(#SVGID_1_);}
	.st2{fill:#FFFFFF;}
</style>
<g>
	<ellipse class="st0" cx="713.5" cy="957" rx="499.5" ry="5"/>
	<g>
		<g>
			<g>
				<path class="st0" d="M214.05,957c0.18,0.01,0.62-0.99,0.96-2.25c0.49-1.87,0.53-2.24,0.52-1.9l0.49,0.08
					c0.4,0.05,0.86,0.1,1.33,0.14c0.94,0.09,1.91,0.16,2.89,0.22c1.96,0.13,3.96,0.23,5.95,0.32c3.99,0.18,8,0.32,12,0.44
					c8.01,0.25,16.01,0.44,23.99,0.61c15.96,0.34,31.84,0.59,47.62,0.82c31.56,0.45,62.73,0.77,93.42,1.04
					c61.38,0.54,120.85,0.89,177.82,1.16c113.94,0.53,217.87,0.74,307.07,0.82c178.39,0.14,297.83-0.33,320.55-0.83
					c-22.64,3.01-142.13,5.74-320.53,7.22c-89.21,0.73-193.15,1.17-307.11,1.09c-56.98-0.05-116.47-0.22-177.87-0.64
					c-30.7-0.22-61.88-0.49-93.47-0.91c-15.8-0.21-31.69-0.45-47.69-0.78c-8-0.17-16.02-0.36-24.08-0.6
					c-4.03-0.13-8.07-0.26-12.12-0.44c-2.03-0.09-4.06-0.19-6.13-0.32c-1.03-0.07-2.07-0.14-3.14-0.24
					c-0.54-0.05-1.09-0.11-1.68-0.18c-0.3-0.04-0.62-0.09-1.01-0.16c-0.2-0.04-0.41-0.08-0.76-0.18c-0.58-1.37-0.16,2.74-3.58-4.51
					c3.42-7.25,3-3.14,3.58-4.51c0.35-0.1,0.55-0.14,0.76-0.18c0.39-0.07,0.7-0.12,1.01-0.16c0.6-0.08,1.14-0.13,1.68-0.18
					c1.07-0.1,2.11-0.17,3.14-0.24c2.06-0.13,4.1-0.23,6.13-0.32c4.06-0.18,8.1-0.32,12.12-0.44c8.06-0.25,16.08-0.44,24.08-0.6
					c16-0.33,31.89-0.57,47.69-0.78c31.59-0.42,62.77-0.69,93.47-0.91c61.4-0.42,120.89-0.6,177.87-0.64
					c113.96-0.08,217.91,0.36,307.11,1.09c178.4,1.48,297.89,4.2,320.53,7.22c-22.73-0.5-142.16-0.98-320.55-0.83
					c-89.19,0.08-193.13,0.29-307.07,0.82c-56.97,0.27-116.44,0.62-177.82,1.16c-30.69,0.28-61.86,0.6-93.42,1.04
					c-15.78,0.23-31.66,0.48-47.62,0.82c-7.98,0.17-15.98,0.36-23.99,0.61c-4,0.13-8.01,0.26-12,0.44
					c-1.99,0.09-3.99,0.19-5.95,0.32c-0.98,0.06-1.96,0.13-2.89,0.22c-0.47,0.04-0.92,0.09-1.33,0.14l-0.49,0.08
					c0.01,0.34-0.03-0.03-0.52-1.9C214.67,957.99,214.23,956.99,214.05,957z"/>
				<path d="M210,957c2.91,6.34,2.64,2.81,3.15,4.01c0.33,0.1,0.5,0.13,0.7,0.17c0.37,0.07,0.65,0.11,0.93,0.15
					c0.56,0.08,1.06,0.13,1.57,0.18c1,0.09,1.97,0.17,2.93,0.23c1.92,0.13,3.82,0.22,5.71,0.31c3.78,0.17,7.54,0.31,11.3,0.43
					c7.51,0.24,14.99,0.42,22.45,0.58c14.92,0.32,29.75,0.56,44.5,0.77c29.5,0.41,58.65,0.68,87.4,0.9
					c57.5,0.43,113.38,0.63,167.17,0.71c107.58,0.15,206.77-0.19,293.68-0.79c173.82-1.22,298.55-3.58,342.99-6.3
					c-44.49,0.46-169.2,0.82-343.01,0.6c-86.9-0.11-186.08-0.35-293.64-0.9c-53.78-0.28-109.65-0.63-167.13-1.16
					c-28.74-0.27-57.88-0.59-87.35-1.02c-14.74-0.22-29.56-0.47-44.44-0.8c-7.44-0.17-14.9-0.35-22.37-0.59
					c-3.73-0.12-7.47-0.26-11.19-0.43c-1.86-0.09-3.72-0.18-5.55-0.3c-0.91-0.06-1.82-0.13-2.7-0.21c-0.43-0.04-0.86-0.09-1.24-0.14
					l-0.46-0.07c0.02-0.3-0.04,0.03-0.48,1.68c-0.3,1.11-0.74,2.02-0.89,1.99c0.15-0.03,0.58,0.88,0.89,1.99
					c0.45,1.64,0.5,1.97,0.48,1.68l0.46-0.07c0.37-0.05,0.8-0.1,1.24-0.14c0.87-0.08,1.78-0.15,2.7-0.21
					c1.83-0.12,3.69-0.22,5.55-0.3c3.72-0.17,7.45-0.31,11.19-0.43c7.47-0.24,14.93-0.42,22.37-0.59
					c14.89-0.33,29.71-0.58,44.44-0.8c29.47-0.43,58.61-0.75,87.35-1.02c57.48-0.54,113.35-0.89,167.13-1.16
					c107.56-0.54,206.73-0.78,293.64-0.9c173.81-0.21,298.52,0.15,343.01,0.6c-44.43-2.72-169.17-5.08-342.99-6.3
					c-86.91-0.6-186.1-0.94-293.68-0.79c-53.79,0.08-109.67,0.28-167.17,0.71c-28.75,0.22-57.9,0.5-87.4,0.9
					c-14.75,0.21-29.58,0.44-44.5,0.77c-7.46,0.16-14.94,0.35-22.45,0.58c-3.76,0.12-7.52,0.26-11.3,0.43
					c-1.89,0.09-3.79,0.19-5.71,0.31c-0.96,0.06-1.93,0.14-2.93,0.23c-0.5,0.05-1.01,0.1-1.57,0.18c-0.28,0.04-0.57,0.08-0.93,0.15
					c-0.2,0.04-0.37,0.08-0.7,0.17C212.64,954.19,212.91,950.66,210,957 M209,957c3.97-8.17,3.37-3.46,4.02-5.01
					c0.35-0.09,0.6-0.14,0.8-0.18c0.42-0.08,0.75-0.12,1.08-0.17c0.64-0.08,1.22-0.14,1.8-0.19c1.15-0.1,2.25-0.18,3.36-0.25
					c2.2-0.14,4.37-0.24,6.54-0.33c4.33-0.19,8.64-0.33,12.93-0.46c8.59-0.25,17.15-0.45,25.67-0.62
					c17.05-0.34,33.97-0.59,50.78-0.8c33.6-0.42,66.71-0.7,99.24-0.91c65.06-0.41,127.82-0.56,187.6-0.57
					c119.56-0.01,227.23,0.54,317.66,1.4c90.42,0.87,163.59,2.06,214.16,3.45c25.28,0.69,44.91,1.44,58.22,2.22
					c6.65,0.39,11.72,0.79,15.13,1.19c1.7,0.2,2.99,0.41,3.84,0.62c0.43,0.1,0.75,0.21,0.96,0.32c0.21,0.09,0.3,0.29,0.23,0.29
					c-0.04-0.01-0.09-0.02-0.3-0.04c-0.21-0.02-0.53-0.04-0.95-0.06c-0.86-0.02-2.14-0.06-3.84-0.11c-3.41-0.05-8.48-0.11-15.12-0.2
					c-13.3-0.13-32.93-0.24-58.21-0.34c-50.56-0.19-123.72-0.31-214.13-0.27c-90.41,0.04-198.06,0.23-317.6,0.75
					c-59.77,0.26-122.51,0.61-187.55,1.16c-32.52,0.28-65.61,0.6-99.19,1.06c-16.79,0.23-33.7,0.49-50.7,0.84
					c-8.5,0.18-17.03,0.37-25.57,0.63c-4.27,0.13-8.54,0.27-12.8,0.46c-2.13,0.09-4.25,0.2-6.35,0.33
					c-1.05,0.07-2.09,0.14-3.09,0.23c-0.5,0.04-0.99,0.09-1.41,0.15l-0.52,0.08c0,0.38-0.02-0.03-0.57-2.13
					c-0.37-1.41-0.83-2.51-1.03-2.51c0.2,0,0.66-1.1,1.03-2.51c0.55-2.1,0.57-2.51,0.57-2.13l0.52,0.08
					c0.43,0.05,0.92,0.1,1.41,0.15c1,0.09,2.04,0.16,3.09,0.23c2.1,0.13,4.22,0.23,6.35,0.33c4.26,0.18,8.53,0.33,12.8,0.46
					c8.54,0.26,17.07,0.45,25.57,0.63c17.01,0.35,33.92,0.61,50.7,0.84c33.58,0.45,66.67,0.78,99.19,1.06
					c65.04,0.55,127.78,0.89,187.55,1.16c119.54,0.52,227.2,0.7,317.6,0.75c90.41,0.04,163.57-0.08,214.13-0.27
					c25.28-0.1,44.91-0.21,58.21-0.34c6.65-0.09,11.71-0.16,15.12-0.2c1.7-0.05,2.98-0.08,3.84-0.11c0.43-0.02,0.75-0.04,0.95-0.06
					c0.22-0.02,0.26-0.03,0.3-0.04c0.07,0-0.01,0.2-0.23,0.29c-0.21,0.11-0.53,0.21-0.96,0.32c-0.86,0.21-2.14,0.41-3.84,0.62
					c-3.4,0.41-8.47,0.8-15.13,1.19c-13.3,0.78-32.93,1.52-58.22,2.22c-50.56,1.39-123.74,2.59-214.16,3.45
					c-90.42,0.86-198.09,1.41-317.66,1.4c-59.78-0.01-122.54-0.16-187.6-0.57c-32.53-0.21-65.64-0.49-99.24-0.91
					c-16.8-0.21-33.73-0.46-50.78-0.8c-8.52-0.17-17.08-0.36-25.67-0.62c-4.3-0.13-8.6-0.27-12.93-0.46
					c-2.17-0.09-4.34-0.2-6.54-0.33c-1.1-0.07-2.21-0.14-3.36-0.25c-0.58-0.05-1.16-0.11-1.8-0.19c-0.33-0.04-0.66-0.09-1.08-0.17
					c-0.21-0.04-0.45-0.09-0.8-0.18C212.37,960.46,212.97,965.17,209,957z"/>
			</g>
		</g>
	</g>
</g>
<linearGradient id="SVGID_1_" gradientUnits="userSpaceOnUse" x1="0" y1="384" x2="1366" y2="384">
	<stop  offset="0" style="stop-color:#FF0000"/>
	<stop  offset="1" style="stop-color:#F15A24"/>
</linearGradient>
<rect class="st1" width="1366" height="768"/>
<polygon class="st2" points="0,768 1366,593 1366,768 "/>
<polygon class="st2" points="1366,768 0,593 0,768 "/>
</svg>
